<?xml version="1.0" encoding="UTF-8"?>
<svg width="64px" height="96px" viewBox="0 0 64 96" version="1.1" xmlns="http://www.w3.org/2000/svg" xmlns:xlink="http://www.w3.org/1999/xlink">
    <!-- Generator: Sketch 50 (54983) - http://www.bohemiancoding.com/sketch -->
    <title>logo</title>
    <desc>Created with Sketch.</desc>
    <defs></defs>
    <g id="Page-1" stroke="none" stroke-width="1" fill="none" fill-rule="evenodd">
        <g id="Mobile-Copy-14" transform="translate(-128.000000, -112.000000)" fill="#000000">
            <g id="favicon" transform="translate(80.000000, 80.000000)">
                <path d="M60,122 L100,122 C103.313708,122 106,119.313708 106,116 L106,108.394614 C104.23496,109.415634 102.185723,110 100,110 L60,110 C56.6862915,110 54,112.686292 54,116 C54,119.313708 56.6862915,122 60,122 Z M60,128 C53.372583,128 48,122.627417 48,116 L48,44 C48,37.372583 53.372583,32 60,32 L100,32 C106.627417,32 112,37.372583 112,44 L112,98 L112,116 C112,122.627417 106.627417,128 100,128 L60,128 Z M60,104 L100,104 C103.313708,104 106,101.313708 106,98 L106,44 C106,40.6862915 103.313708,38 100,38 L60,38 C56.6862915,38 54,40.6862915 54,44 L54,105.605386 C55.7650402,104.584366 57.8142771,104 60,104 Z M65,56 L75,56 C76.6568542,56 78,57.3431458 78,59 C78,60.6568542 76.6568542,62 75,62 L65,62 C63.3431458,62 62,60.6568542 62,59 C62,57.3431458 63.3431458,56 65,56 Z M65,66 L91,66 C92.6568542,66 94,67.3431458 94,69 C94,70.6568542 92.6568542,72 91,72 L65,72 C63.3431458,72 62,70.6568542 62,69 C62,67.3431458 63.3431458,66 65,66 Z" id="logo"></path>
            </g>
        </g>
    </g>
</svg>